<svg version="1.1" xmlns="http://www.w3.org/2000/svg" viewBox="0 0 649.5476191745042 135.770630519667" width="649.5476191745042" height="135.770630519667" filter="invert(93%) hue-rotate(180deg)"><!-- svg-source:excalidraw --><metadata></metadata><defs><style class="style-fonts">
      </style></defs><rect x="0" y="0" width="649.5476191745042" height="135.770630519667" fill="#ffffff"></rect><g stroke-linecap="round" transform="translate(277.50857571384586 67.83242321286826) rotate(0 56.32368262651721 18.386723501592797)"><path d="M57.08 0.26 L112.28 18.46 L57.88 37.63 L-1.36 20.15" stroke="none" stroke-width="0" fill="#fd8888" fill-rule="evenodd"></path><path d="M57 0 C72.5 5.66, 82.6 10.13, 112.65 19 M57 0 C79.05 6.64, 100.42 13.53, 112.65 19 M112.65 19 C95.14 22.82, 80.2 31.17, 57 36.77 M112.65 19 C96.4 23.3, 80.56 28.56, 57 36.77 M57 36.77 C37.15 29.32, 22.11 23.96, 0 19 M57 36.77 C34.98 30.93, 11.51 23.98, 0 19 M0 19 C23.48 11.18, 42.84 6.07, 57 0 M0 19 C17.36 14.22, 33.01 7.99, 57 0" stroke="#c92a2a" stroke-width="1" fill="none"></path></g><g stroke-linecap="round" transform="translate(277.50857571384586 58.960643284609716) rotate(0 56.32368262651721 18.386723501592797)"><path d="M56.63 -0.54 L113.53 19.85 L55.64 37.93 L-1.92 19.18" stroke="none" stroke-width="0" fill="#fd8888" fill-rule="evenodd"></path><path d="M57 0 C74.9 7.36, 97.41 13.05, 112.65 19 M57 0 C79.16 6.77, 99.34 14.87, 112.65 19 M112.65 19 C96.85 25.48, 80.06 27.75, 57 36.77 M112.65 19 C97.94 23.06, 85 28.31, 57 36.77 M57 36.77 C46.96 31.8, 35.44 29.5, 0 19 M57 36.77 C35.51 31.54, 15.31 23.89, 0 19 M0 19 C16.77 14.89, 34.79 6.47, 57 0 M0 19 C11.88 14.32, 24.7 10.7, 57 0" stroke="#c92a2a" stroke-width="1" fill="none"></path></g><g stroke-linecap="round" transform="translate(277.50857571384586 46.33008368989766) rotate(0 56.32368262651721 18.386723501592797)"><path d="M57.88 0.85 L111.29 20.15 L55.08 36.95 L-0.71 20.29" stroke="none" stroke-width="0" fill="#fd8888" fill-rule="evenodd"></path><path d="M57 0 C78.79 6.85, 99.05 15.1, 112.65 19 M57 0 C72.84 6.01, 88.49 10.46, 112.65 19 M112.65 19 C99.41 22.48, 85.89 26.67, 57 36.77 M112.65 19 C98.29 24.2, 82.75 27.37, 57 36.77 M57 36.77 C45.26 32.74, 31.22 29.38, 0 19 M57 36.77 C36.14 30.4, 13.71 24.63, 0 19 M0 19 C15.47 12.38, 29.55 9.39, 57 0 M0 19 C18.93 13.08, 37.52 6.4, 57 0" stroke="#c92a2a" stroke-width="1" fill="none"></path></g><g stroke-linecap="round" transform="translate(277.50857571384586 33.798411392600315) rotate(0 56.32368262651721 18.386723501592797)"><path d="M55.64 1.15 L110.73 19.18 L56.29 38.06 L-0.16 20.83" stroke="none" stroke-width="0" fill="#fd8888" fill-rule="evenodd"></path><path d="M57 0 C78.59 8.26, 96.5 15.27, 112.65 19 M57 0 C70.58 3.91, 83.71 9.34, 112.65 19 M112.65 19 C90.07 24.51, 68.74 30.96, 57 36.77 M112.65 19 C95.85 23.69, 80.24 30.36, 57 36.77 M57 36.77 C43.82 33.71, 29.56 27.54, 0 19 M57 36.77 C34.61 30.61, 11.93 22.47, 0 19 M0 19 C20 13.29, 43.89 4.06, 57 0 M0 19 C14.75 13.67, 30.31 9.39, 57 0" stroke="#c92a2a" stroke-width="1" fill="none"></path></g><g stroke-linecap="round"><g transform="translate(549.4425792091267 19.790967592863694) rotate(0 44.06059301640448 47.85201411482009)" fill-rule="evenodd"><path d="M0.99 -0.97 C0.95 13.9, 2.21 71.9, 1.75 88.14 C1.28 104.39, -2.48 94.28, -1.78 96.49 C-1.09 98.71, 2.6 100.44, 5.9 101.43 C9.2 102.43, 11.55 101.8, 18.01 102.44 C24.48 103.09, 35.3 105.05, 44.67 105.32 C54.04 105.59, 67.61 104.84, 74.23 104.06 C80.86 103.28, 82.32 102.11, 84.43 100.64 C86.55 99.17, 86.04 97.68, 86.92 95.25 C87.8 92.82, 89.37 100.64, 89.7 86.03 C90.04 71.42, 88.96 22.38, 88.95 7.59 C88.95 -7.2, 90.76 -0.88, 89.68 -2.72 C88.59 -4.56, 85.71 -2.87, 82.46 -3.44 C79.2 -4, 76.9 -4.99, 70.14 -6.12 C63.38 -7.25, 50.48 -9.9, 41.89 -10.24 C33.31 -10.58, 25.19 -9.17, 18.65 -8.17 C12.1 -7.18, 5.51 -5.75, 2.61 -4.29 C-0.29 -2.84, 1.63 -0.33, 1.24 0.56 C0.85 1.44, 0.46 1.28, 0.28 1.02" stroke="none" stroke-width="0" fill="#a5d8ff" fill-rule="evenodd"></path><path d="M1.1 -0.39 C1.18 13.78, 1.31 68.71, 1.24 84.89 C1.18 101.06, 0.32 94.29, 0.72 96.65 C1.13 99.02, 0.48 98.07, 3.68 99.08 C6.88 100.1, 12.58 101.59, 19.95 102.74 C27.32 103.89, 39 105.87, 47.88 105.97 C56.77 106.08, 67.08 104.58, 73.28 103.38 C79.48 102.18, 82.46 100.1, 85.08 98.78 C87.71 97.47, 88.66 97.45, 89.01 95.47 C89.36 93.48, 87.43 101.63, 87.19 86.87 C86.95 72.11, 87.42 21.44, 87.55 6.93 C87.68 -7.57, 89.1 1.58, 87.95 -0.17 C86.8 -1.92, 83.85 -2.32, 80.66 -3.56 C77.46 -4.79, 75.29 -6.62, 68.78 -7.55 C62.27 -8.49, 49.4 -9.29, 41.59 -9.17 C33.78 -9.05, 28.08 -7.89, 21.91 -6.82 C15.75 -5.76, 8.33 -4.07, 4.6 -2.77 C0.87 -1.47, 0.16 0.63, -0.46 0.99 C-1.09 1.35, 0.57 -0.31, 0.83 -0.62 M0.22 -1.64 C0.15 12.64, 0.78 69.75, 0.79 85.81 C0.81 101.87, -0.11 92.42, 0.33 94.73 C0.78 97.04, -0.13 98.34, 3.47 99.66 C7.08 100.98, 14.84 101.66, 21.94 102.64 C29.05 103.63, 37.98 105.63, 46.11 105.56 C54.23 105.49, 63.84 103.42, 70.69 102.23 C77.55 101.05, 84.37 99.8, 87.24 98.47 C90.11 97.14, 87.89 96.3, 87.92 94.25 C87.95 92.21, 87.49 100.63, 87.44 86.21 C87.4 71.8, 87.77 22.22, 87.66 7.77 C87.55 -6.69, 88.02 1.44, 86.79 -0.5 C85.56 -2.44, 82.88 -2.59, 80.28 -3.85 C77.67 -5.1, 77.64 -7.04, 71.15 -8.03 C64.66 -9.02, 49.89 -9.66, 41.33 -9.77 C32.77 -9.88, 26.07 -9.46, 19.81 -8.69 C13.55 -7.93, 6.79 -6.36, 3.77 -5.2 C0.75 -4.05, 2.34 -2.51, 1.69 -1.76 C1.04 -1, 0.42 -1.08, -0.11 -0.69" stroke="#1971c2" stroke-width="1" fill="none"></path></g></g><mask></mask><g stroke-linecap="round"><g transform="translate(550.1299407986239 85.08109562365127) rotate(0 44.15404313987267 4.448651936218312)"><path d="M0.95 -1.17 C1.28 -0.32, 1.28 3.48, 3.04 4.71 C4.79 5.93, 7.78 5.59, 11.5 6.18 C15.21 6.77, 19.34 7.51, 25.34 8.24 C31.35 8.97, 39.78 10.5, 47.53 10.54 C55.28 10.58, 65.71 9.63, 71.86 8.47 C78 7.3, 81.46 4.97, 84.38 3.53 C87.31 2.1, 88.93 0.6, 89.42 -0.13 M-0.01 0.84 C0.12 1.38, 0.14 1.99, 2.46 3.01 C4.79 4.03, 10.12 6, 13.94 6.97 C17.76 7.95, 19.96 8.7, 25.4 8.86 C30.83 9.01, 39.09 8.1, 46.53 7.9 C53.97 7.69, 63.7 8.57, 70.04 7.63 C76.38 6.68, 81.39 3.53, 84.55 2.21 C87.7 0.89, 88.27 -0.14, 88.97 -0.3" stroke="#1971c2" stroke-width="1" fill="none"></path></g></g><mask></mask><g stroke-linecap="round"><g transform="translate(549.0361992865626 52.00694106157948) rotate(0 44.15404313987267 4.448651936218312)"><path d="M0.71 0.8 C0.8 1.48, -0.42 2, 1.46 2.9 C3.34 3.81, 7.8 5.01, 11.99 6.26 C16.18 7.5, 20.7 9.78, 26.61 10.36 C32.52 10.94, 40.2 10.1, 47.45 9.73 C54.7 9.36, 63.64 9.12, 70.13 8.13 C76.62 7.14, 83.53 5.3, 86.4 3.81 C89.27 2.31, 87.08 -0.08, 87.33 -0.84 M-0.37 0.18 C0 1.08, 1.82 2.77, 3.72 3.92 C5.62 5.07, 7.1 6.33, 11.03 7.09 C14.97 7.84, 21.44 7.89, 27.33 8.43 C33.23 8.97, 39.12 10.54, 46.41 10.32 C53.7 10.1, 64.8 8.39, 71.06 7.11 C77.32 5.83, 80.9 4.05, 83.97 2.63 C87.03 1.21, 88.5 -0.57, 89.45 -1.39" stroke="#1971c2" stroke-width="1" fill="none"></path></g></g><mask></mask><g stroke-linecap="round" transform="translate(547.9153766004008 11.766271365767011) rotate(0 43.825373054270926 8.863351988406833)"><path d="M53.78 0.27 C62.72 0.51, 73.33 1.91, 78.93 3.34 C84.52 4.77, 87.86 6.95, 87.36 8.84 C86.86 10.72, 82.27 13.14, 75.9 14.65 C69.54 16.16, 58.46 17.63, 49.18 17.92 C39.89 18.21, 28.03 17.44, 20.19 16.37 C12.36 15.3, 4.99 13.33, 2.16 11.51 C-0.67 9.7, -0.44 7.31, 3.22 5.48 C6.89 3.66, 15.37 1.47, 24.13 0.57 C32.89 -0.32, 50.2 0.1, 55.78 0.13 C61.36 0.16, 57.81 0.67, 57.61 0.77 M39.95 0.74 C48.87 0.48, 61.45 0.2, 69.08 1.28 C76.71 2.36, 83.32 5.29, 85.71 7.23 C88.1 9.16, 87.22 11.42, 83.41 12.9 C79.61 14.39, 71.39 15.5, 62.87 16.16 C54.34 16.83, 41.27 17.18, 32.26 16.88 C23.25 16.59, 14.24 15.91, 8.81 14.41 C3.37 12.9, -1.06 9.87, -0.34 7.86 C0.39 5.85, 6.44 3.59, 13.16 2.35 C19.89 1.1, 35.66 0.73, 40.01 0.41 C44.36 0.08, 39.13 0.41, 39.27 0.39" stroke="none" stroke-width="0" fill="#a5d8ff"></path><path d="M40.96 0.37 C49.9 -0.01, 61.94 0.15, 69.5 1.28 C77.05 2.4, 83.96 5.29, 86.29 7.12 C88.62 8.96, 87.57 10.68, 83.48 12.29 C79.39 13.89, 70.36 15.88, 61.77 16.77 C53.17 17.65, 40.92 18.16, 31.92 17.6 C22.91 17.03, 12.95 15.06, 7.74 13.39 C2.52 11.71, -0.24 9.42, 0.63 7.54 C1.5 5.65, 6.17 3.25, 12.94 2.06 C19.71 0.88, 36.33 0.69, 41.28 0.43 C46.23 0.17, 42.52 0.48, 42.63 0.53 M53.95 -0.34 C62.79 -0.05, 73.5 1.59, 79.16 3.13 C84.82 4.68, 88.34 6.88, 87.91 8.94 C87.49 11, 83.1 14, 76.62 15.48 C70.14 16.97, 58.36 17.63, 49.05 17.85 C39.73 18.06, 28.69 17.87, 20.74 16.76 C12.79 15.64, 4.36 13.02, 1.34 11.16 C-1.68 9.31, -1.18 7.28, 2.61 5.65 C6.4 4.01, 15.72 2.14, 24.09 1.33 C32.45 0.52, 48 0.94, 52.78 0.79 C57.56 0.64, 52.77 0.43, 52.77 0.41" stroke="#1971c2" stroke-width="1" fill="none"></path></g><g stroke-linecap="round" transform="translate(619.4251089009815 36.34207424290054) rotate(0 6.423028523489847 6.970952181208048)"><path d="M7.02 -0.15 C8.26 -0.23, 9.67 0.45, 10.63 1.47 C11.58 2.49, 12.57 4.37, 12.74 5.97 C12.91 7.58, 12.37 9.81, 11.64 11.1 C10.91 12.4, 9.61 13.34, 8.35 13.72 C7.08 14.1, 5.36 13.99, 4.05 13.39 C2.73 12.78, 1.05 11.53, 0.46 10.12 C-0.13 8.7, 0.12 6.41, 0.51 4.91 C0.89 3.42, 1.67 1.94, 2.78 1.15 C3.89 0.36, 6.44 0.41, 7.18 0.17 C7.91 -0.07, 7.26 -0.37, 7.18 -0.31 M5.93 -0.24 C7.12 -0.51, 8.45 0.9, 9.52 1.81 C10.58 2.72, 11.8 4.05, 12.32 5.24 C12.84 6.43, 13.21 7.72, 12.64 8.95 C12.07 10.18, 10.05 11.74, 8.9 12.61 C7.75 13.49, 7.09 14.48, 5.74 14.19 C4.4 13.91, 1.7 12.22, 0.83 10.91 C-0.05 9.6, 0.32 7.74, 0.51 6.35 C0.69 4.97, 1.2 3.63, 1.96 2.61 C2.71 1.59, 4.31 0.74, 5.04 0.23 C5.77 -0.27, 6.24 -0.42, 6.33 -0.42" stroke="none" stroke-width="0" fill="#a5d8ff"></path><path d="M7.78 -0.26 C9 -0.06, 10.55 1.87, 11.42 3.02 C12.28 4.18, 13.03 5.27, 12.98 6.66 C12.93 8.04, 12.07 10.12, 11.12 11.35 C10.18 12.59, 8.65 13.86, 7.33 14.05 C6.01 14.23, 4.3 13.35, 3.21 12.48 C2.12 11.6, 1.28 10.21, 0.78 8.8 C0.28 7.4, -0.22 5.28, 0.19 4.03 C0.6 2.78, 1.92 1.89, 3.25 1.3 C4.58 0.71, 7.35 0.69, 8.19 0.49 C9.02 0.3, 8.27 0.03, 8.24 0.15 M6.19 -0.27 C7.41 -0.5, 9.05 -0.17, 10.18 0.8 C11.32 1.76, 12.73 4.01, 13 5.52 C13.27 7.03, 12.34 8.5, 11.8 9.84 C11.27 11.18, 11.05 12.98, 9.8 13.57 C8.55 14.16, 5.85 13.77, 4.32 13.4 C2.79 13.03, 1.24 12.44, 0.62 11.37 C-0.01 10.3, 0.45 8.41, 0.55 6.99 C0.65 5.56, 0.42 3.99, 1.21 2.84 C2 1.69, 4.48 0.59, 5.29 0.09 C6.1 -0.41, 5.96 -0.31, 6.08 -0.18" stroke="#1971c2" stroke-width="1" fill="none"></path></g><g stroke-linecap="round" transform="translate(619.4251089009815 66.944528101961) rotate(0 6.423028523489847 6.970952181208048)"><path d="M6.35 -0.46 C7.62 -0.53, 9.56 0.4, 10.61 1.51 C11.66 2.62, 12.41 4.67, 12.65 6.2 C12.89 7.72, 12.69 9.43, 12.03 10.67 C11.36 11.9, 10.03 13.14, 8.67 13.61 C7.31 14.09, 5.13 14.14, 3.87 13.52 C2.6 12.9, 1.7 11.25, 1.1 9.9 C0.51 8.54, 0.03 6.76, 0.29 5.39 C0.54 4.02, 1.51 2.64, 2.64 1.66 C3.77 0.69, 6.31 -0.19, 7.05 -0.46 C7.79 -0.74, 7.15 -0.19, 7.08 0.02 M7.54 0.9 C8.74 1.25, 10.42 2.2, 11.35 3.16 C12.28 4.13, 13.25 5.34, 13.13 6.68 C13.01 8.02, 11.49 9.94, 10.62 11.21 C9.75 12.49, 9.26 14.1, 7.89 14.32 C6.52 14.53, 3.58 13.45, 2.4 12.5 C1.21 11.56, 1.03 9.99, 0.76 8.67 C0.49 7.35, 0.41 5.86, 0.78 4.56 C1.15 3.27, 1.68 1.74, 2.98 0.91 C4.29 0.08, 7.82 -0.24, 8.63 -0.43 C9.43 -0.62, 7.87 -0.48, 7.82 -0.22" stroke="none" stroke-width="0" fill="#a5d8ff"></path><path d="M7.54 0.56 C8.83 0.71, 10.6 1.03, 11.46 2.06 C12.32 3.1, 12.72 5.18, 12.68 6.78 C12.65 8.37, 12.08 10.53, 11.24 11.63 C10.4 12.72, 8.9 13.19, 7.63 13.35 C6.37 13.5, 4.9 13.3, 3.65 12.56 C2.41 11.82, 0.72 10.17, 0.17 8.91 C-0.38 7.66, -0.23 6.29, 0.34 5.02 C0.92 3.75, 2.28 2.12, 3.62 1.29 C4.96 0.46, 7.52 0.12, 8.4 0.05 C9.29 -0.02, 9.04 0.64, 8.91 0.86 M5.56 -0.18 C6.81 -0.36, 8.98 0.73, 10.04 1.55 C11.09 2.37, 11.42 3.37, 11.89 4.74 C12.37 6.1, 13.38 8.41, 12.89 9.72 C12.4 11.03, 10.34 11.89, 8.97 12.61 C7.6 13.32, 5.8 14.14, 4.65 14.01 C3.5 13.88, 2.93 12.89, 2.08 11.82 C1.22 10.75, -0.33 9.15, -0.48 7.6 C-0.63 6.06, 0.14 3.87, 1.17 2.56 C2.21 1.25, 5 0.1, 5.73 -0.26 C6.47 -0.63, 5.54 0.31, 5.59 0.37" stroke="#1971c2" stroke-width="1" fill="none"></path></g><g stroke-linecap="round" transform="translate(619.4251089009815 100.20532927645763) rotate(0 6.423028523489847 6.970952181208048)"><path d="M5.82 -0.21 C7.14 -0.3, 8.85 0.63, 10 1.54 C11.16 2.45, 12.35 3.85, 12.76 5.25 C13.16 6.66, 13.08 8.62, 12.44 9.98 C11.8 11.33, 10.14 12.81, 8.91 13.36 C7.68 13.91, 6.32 13.73, 5.06 13.29 C3.79 12.86, 2.11 11.88, 1.3 10.75 C0.5 9.61, 0.12 8.02, 0.24 6.48 C0.36 4.95, 1.05 2.65, 2.02 1.54 C2.98 0.43, 5.31 0.04, 6.02 -0.17 C6.73 -0.38, 6.15 0.08, 6.26 0.26 M5.56 0.37 C6.97 -0.09, 9.25 -0.19, 10.35 0.51 C11.45 1.2, 11.7 2.92, 12.15 4.54 C12.59 6.17, 13.58 8.87, 13.01 10.27 C12.44 11.68, 9.99 12.45, 8.71 12.98 C7.43 13.5, 6.53 13.7, 5.32 13.44 C4.11 13.18, 2.43 12.54, 1.45 11.4 C0.47 10.26, -0.73 8.26, -0.55 6.61 C-0.37 4.96, 1.5 2.66, 2.54 1.48 C3.59 0.29, 5.09 -0.34, 5.72 -0.52 C6.36 -0.69, 6.28 0.29, 6.33 0.43" stroke="none" stroke-width="0" fill="#a5d8ff"></path><path d="M5.35 -0.28 C6.59 -0.74, 8.23 -0.11, 9.39 0.71 C10.55 1.54, 11.78 3.34, 12.31 4.69 C12.84 6.03, 12.92 7.47, 12.56 8.78 C12.2 10.08, 11.37 11.73, 10.14 12.49 C8.91 13.26, 6.61 13.48, 5.18 13.39 C3.74 13.29, 2.32 12.94, 1.53 11.94 C0.73 10.95, 0.38 9.01, 0.43 7.41 C0.48 5.82, 0.89 3.56, 1.82 2.39 C2.76 1.23, 5.37 0.7, 6.02 0.41 C6.66 0.11, 5.82 0.49, 5.7 0.62 M6.17 0.68 C7.32 0.52, 8.3 0.58, 9.44 1.37 C10.58 2.16, 12.65 4.1, 13.01 5.43 C13.36 6.77, 12.34 8.08, 11.6 9.4 C10.85 10.73, 9.58 12.61, 8.56 13.39 C7.53 14.16, 6.74 14.35, 5.44 14.07 C4.14 13.78, 1.72 12.93, 0.76 11.67 C-0.19 10.42, -0.53 8.2, -0.29 6.55 C-0.04 4.9, 1.2 2.84, 2.25 1.77 C3.31 0.71, 5.34 0.54, 6.03 0.16 C6.72 -0.23, 6.42 -0.7, 6.41 -0.55" stroke="#1971c2" stroke-width="1" fill="none"></path></g><g stroke-linecap="round"><g transform="translate(73.17668831316519 19.454270336828017) rotate(0 -4.966506834870756 51.825536618733025)" fill-rule="evenodd"><path d="M-62.14 18.86 C-62.14 18.86, -62.14 18.86, -62.14 18.86 M-62.14 18.86 C-62.14 18.86, -62.14 18.86, -62.14 18.86 M-62.4 25.25 C-60.8 22.24, -57.16 19.06, -55.19 16.95 M-62.4 25.25 C-61.37 23.23, -59.98 21.86, -55.19 16.95 M-62.67 31.65 C-57.15 26.13, -51.37 19.24, -48.23 15.05 M-62.67 31.65 C-58.53 28.2, -56.91 23.32, -48.23 15.05 M-62.93 38.05 C-53.62 27.45, -46.11 19.11, -40.62 12.39 M-62.93 38.05 C-54.18 28.15, -45.74 19.48, -40.62 12.39 M-62.53 43.69 C-56.66 36.81, -49.93 27.96, -33.67 10.48 M-62.53 43.69 C-56.29 36.12, -50.53 29.62, -33.67 10.48 M-62.79 50.09 C-51.36 39.41, -44.98 26.06, -26.06 7.83 M-62.79 50.09 C-49.47 35.79, -36.81 21.68, -26.06 7.83 M-63.06 56.49 C-54.08 44.25, -41.68 34.61, -19.1 5.92 M-63.06 56.49 C-52.21 43.27, -41.07 29.81, -19.1 5.92 M-62.66 62.13 C-49.34 44.12, -34.84 29.35, -11.49 3.26 M-62.66 62.13 C-45.5 44.32, -29.55 25.69, -11.49 3.26 M-62.92 68.53 C-48.59 49.33, -32.51 33.03, -4.53 1.36 M-62.92 68.53 C-49.52 53.82, -34.64 36.76, -4.53 1.36 M-63.18 74.93 C-41.26 46.81, -18.9 21.95, 1.11 0.96 M-63.18 74.93 C-40.72 47.8, -16.25 21.5, 1.11 0.96 M-62.13 79.81 C-38.42 53.31, -15.52 25.84, 5.44 2.08 M-62.13 79.81 C-44.51 59.45, -26.11 38.86, 5.44 2.08 M-58.46 81.68 C-36.05 53.43, -10.43 26.05, 9.12 3.95 M-58.46 81.68 C-43.04 64.72, -27.43 47.95, 9.12 3.95 M-54.78 83.55 C-28.76 51.29, -0.3 19.36, 13.45 5.06 M-54.78 83.55 C-37.15 63.8, -19.19 43.2, 13.45 5.06 M-50.45 84.67 C-24.75 55.61, -0.37 26.25, 17.12 6.93 M-50.45 84.67 C-24.45 55.6, 0.25 26.03, 17.12 6.93 M-46.78 86.54 C-25.24 61.53, -7.72 38.5, 20.8 8.8 M-46.78 86.54 C-32.27 69.71, -17.25 51.82, 20.8 8.8 M-43.1 88.41 C-23.65 68.75, -5.35 45.94, 25.13 9.92 M-43.1 88.41 C-21.58 64.43, 1.69 37.9, 25.13 9.92 M-39.43 90.28 C-20.28 65.8, 1.12 41.27, 28.8 11.79 M-39.43 90.28 C-16.99 63.26, 7.13 37.1, 28.8 11.79 M-35.1 91.39 C-14.34 65.08, 9.51 40.35, 32.48 13.66 M-35.1 91.39 C-14.94 66.67, 7.07 42.82, 32.48 13.66 M-31.42 93.26 C-9.2 68.33, 12.6 41.22, 36.81 14.77 M-31.42 93.26 C-10.63 70.01, 10.6 46.9, 36.81 14.77 M-27.75 95.13 C-6.56 69.06, 18.08 42.3, 40.48 16.64 M-27.75 95.13 C-11.47 76.35, 2.48 59.77, 40.48 16.64 M-24.07 97 C1.32 71.67, 23 40.85, 44.81 17.76 M-24.07 97 C0.39 70.32, 22.97 43.51, 44.81 17.76 M-19.74 98.12 C5.1 67.95, 33.16 37.4, 48.49 19.63 M-19.74 98.12 C0.42 76.9, 17.45 54.98, 48.49 19.63 M-16.07 99.98 C6.88 75.76, 28.84 49.37, 52.16 21.49 M-16.07 99.98 C0.13 82.53, 15.91 63.23, 52.16 21.49 M-12.39 101.85 C2.28 84.49, 19.23 65.94, 53.21 26.38 M-12.39 101.85 C7.76 78.09, 27.67 56.08, 53.21 26.38 M-8.06 102.97 C7.56 81.32, 26.65 61.44, 52.95 32.78 M-8.06 102.97 C8.3 83.57, 25.56 62.25, 52.95 32.78 M-1.11 101.07 C18.85 78.41, 38.72 53.33, 53.35 38.42 M-1.11 101.07 C15.18 82.21, 31.87 62.51, 53.35 38.42 M7.16 97.65 C23.62 79.36, 36.3 61.98, 53.09 44.82 M7.16 97.65 C20.84 81.59, 36.66 62.85, 53.09 44.82 M15.43 94.24 C27.71 77.24, 41.55 64.26, 52.82 51.22 M15.43 94.24 C27.71 81.39, 39.74 66.29, 52.82 51.22 M23.7 90.82 C35.13 80.43, 44.11 70.3, 52.56 57.62 M23.7 90.82 C34.19 78.87, 45.51 68.08, 52.56 57.62 M31.96 87.41 C37.58 80.47, 46.43 68.35, 52.3 64.02 M31.96 87.41 C37.67 80.26, 42.52 73.85, 52.3 64.02 M40.23 84 C44.12 80.4, 47.05 77.23, 52.7 69.66 M40.23 84 C43.22 79.47, 46.43 75.46, 52.7 69.66 M48.5 80.58 C48.77 79.35, 50.09 78.31, 52.43 76.06 M48.5 80.58 C49.87 78.94, 51.45 77.18, 52.43 76.06" stroke="#be4bdb" stroke-width="0.5" fill="none"></path><path d="M0 0 C-21.68 5.67, -41.34 12.46, -62.44 19.2 M0 0 C-23 7.44, -46.81 15.83, -62.44 19.2 M-62.44 19.2 C-60.47 33.26, -61.44 48.29, -63.18 79.44 M-62.44 19.2 C-61.93 41.4, -61.9 61.55, -63.18 79.44 M-63.18 79.44 C-48.06 86.24, -36.9 92.97, -7.62 103.65 M-63.18 79.44 C-49.22 85.79, -34.12 92.58, -7.62 103.65 M-7.62 103.65 C4.62 99.14, 15.84 92.48, 51.96 79.16 M-7.62 103.65 C4.52 99.38, 17.37 93.89, 51.96 79.16 M51.96 79.16 C52.6 60.69, 51.18 40.27, 53.24 21.29 M51.96 79.16 C52.28 63.11, 52.01 48.65, 53.24 21.29 M53.24 21.29 C40.77 15.7, 25.63 13.05, 0 0 M53.24 21.29 C37.89 15.16, 23.8 11.05, 0 0 M0 0 C0 0, 0 0, 0 0 M0 0 C0 0, 0 0, 0 0" stroke="#982fb2" stroke-width="1" fill="none"></path></g></g><mask></mask><g stroke-linecap="round"><g transform="translate(133.95062525205867 69.0413280918196) rotate(0 67.57814325905986 0)"><path d="M0 0 C22.53 0, 112.63 0, 135.16 0 M0 0 C22.53 0, 112.63 0, 135.16 0" stroke="#1e1e1e" stroke-width="2" fill="none"></path></g><g transform="translate(133.95062525205867 69.0413280918196) rotate(0 67.57814325905986 0)"><path d="M135.16 0 L121.56 6.34 L121.56 -6.34 L135.16 0" stroke="none" stroke-width="0" fill="#1e1e1e" fill-rule="evenodd"></path><path d="M135.16 0 C131.52 1.7, 127.88 3.39, 121.56 6.34 M135.16 0 C130.36 2.24, 125.56 4.47, 121.56 6.34 M121.56 6.34 C121.56 2.77, 121.56 -0.8, 121.56 -6.34 M121.56 6.34 C121.56 2.2, 121.56 -1.95, 121.56 -6.34 M121.56 -6.34 C126.3 -4.13, 131.03 -1.92, 135.16 0 M121.56 -6.34 C126.61 -3.98, 131.66 -1.63, 135.16 0 M135.16 0 C135.16 0, 135.16 0, 135.16 0 M135.16 0 C135.16 0, 135.16 0, 135.16 0" stroke="#1e1e1e" stroke-width="2" fill="none"></path></g></g><mask></mask><g stroke-linecap="round"><g transform="translate(400.1178340067447 60.528190854590434) rotate(0 67.57814325905986 0)"><path d="M0 0 C22.53 0, 112.63 0, 135.16 0 M0 0 C22.53 0, 112.63 0, 135.16 0" stroke="#1e1e1e" stroke-width="2" fill="none"></path></g><g transform="translate(400.1178340067447 60.528190854590434) rotate(0 67.57814325905986 0)"><path d="M135.16 0 L121.56 6.34 L121.56 -6.34 L135.16 0" stroke="none" stroke-width="0" fill="#1e1e1e" fill-rule="evenodd"></path><path d="M135.16 0 C130.64 2.1, 126.13 4.21, 121.56 6.34 M135.16 0 C132.29 1.34, 129.43 2.67, 121.56 6.34 M121.56 6.34 C121.56 3.41, 121.56 0.48, 121.56 -6.34 M121.56 6.34 C121.56 3.08, 121.56 -0.19, 121.56 -6.34 M121.56 -6.34 C125.33 -4.58, 129.1 -2.82, 135.16 0 M121.56 -6.34 C125.03 -4.72, 128.49 -3.11, 135.16 0 M135.16 0 C135.16 0, 135.16 0, 135.16 0 M135.16 0 C135.16 0, 135.16 0, 135.16 0" stroke="#1e1e1e" stroke-width="2" fill="none"></path></g></g><mask></mask><g stroke-linecap="round"><g transform="translate(400.1178340067447 81.61127657501652) rotate(0 67.57814325905986 0)"><path d="M0 0 C22.53 0, 112.63 0, 135.16 0 M0 0 C22.53 0, 112.63 0, 135.16 0" stroke="#1e1e1e" stroke-width="2" fill="none"></path></g><g transform="translate(400.1178340067447 81.61127657501652) rotate(0 67.57814325905986 0)"><path d="M0 0 L13.59 -6.34 L13.59 6.34 L0 0" stroke="none" stroke-width="0" fill="#1e1e1e" fill-rule="evenodd"></path><path d="M0 0 C4.35 -2.03, 8.69 -4.05, 13.59 -6.34 M0 0 C3.36 -1.57, 6.72 -3.13, 13.59 -6.34 M13.59 -6.34 C13.59 -1.68, 13.59 2.98, 13.59 6.34 M13.59 -6.34 C13.59 -1.42, 13.59 3.5, 13.59 6.34 M13.59 6.34 C10.33 4.82, 7.07 3.3, 0 0 M13.59 6.34 C8.19 3.82, 2.79 1.3, 0 0 M0 0 C0 0, 0 0, 0 0 M0 0 C0 0, 0 0, 0 0" stroke="#1e1e1e" stroke-width="2" fill="none"></path></g></g><mask></mask></svg>